<?xml version="1.0" standalone="no"?><!DOCTYPE svg PUBLIC "-//W3C//DTD SVG 1.1//EN" "http://www.w3.org/Graphics/SVG/1.1/DTD/svg11.dtd"><svg t="1569235446298" class="icon" viewBox="0 0 1024 1024" version="1.1" xmlns="http://www.w3.org/2000/svg" p-id="995" xmlns:xlink="http://www.w3.org/1999/xlink" width="200" height="200"><defs><style type="text/css"></style></defs><path d="M909.979 155.918H114.031c-28.915 0-52.364 23.443-52.364 52.364v20.946c0 28.915 23.444 52.364 52.364 52.364H909.97c28.917 0 52.364-23.444 52.364-52.364v-20.946c0.005-28.916-23.433-52.364-52.35-52.364h-0.005z m0 293.234H114.031c-28.915 0-52.364 23.447-52.364 52.364v20.945c0 28.921 23.444 52.37 52.364 52.37H909.97c28.917 0 52.364-23.448 52.364-52.37v-20.945c0.005-28.917-23.433-52.364-52.35-52.364h-0.005z m0 293.252H114.031c-28.915 0-52.364 23.447-52.364 52.364v20.946c0 28.919 23.444 52.368 52.364 52.368H909.97c28.917 0 52.364-23.439 52.364-52.368v-20.946c0.005-28.925-23.433-52.364-52.35-52.364h-0.005z" p-id="996"></path></svg>