<?xml version="1.0" standalone="no"?><!DOCTYPE svg PUBLIC "-//W3C//DTD SVG 1.1//EN" "http://www.w3.org/Graphics/SVG/1.1/DTD/svg11.dtd"><svg t="1569324551329" class="icon" viewBox="0 0 1027 1024" version="1.1" xmlns="http://www.w3.org/2000/svg" p-id="772" xmlns:xlink="http://www.w3.org/1999/xlink" width="200.5859375" height="200"><defs><style type="text/css"></style></defs><path d="M318.5 356.00000029c33.00000029-36 65.99999971-81 72-114.00000029H246.5c6.00000029 36 38.99999971 78.00000029 72 114.00000029z" fill="" p-id="773"></path><path d="M528.49999971 451.99999971c9 0 15.00000029-6.00000029 15.00000029-14.99999942V77.00000029c0-9-6.00000029-15.00000029-15.00000029-15.00000029H78.49999971C69.49999971 62 63.50000029 68.00000029 63.50000029 77.00000029v450c0 9 6.00000029 15.00000029 14.99999942 14.99999942h360c9 0 15.00000029-6.00000029 15.00000029-14.99999942v-30.00000058c0-24.00000029 20.99999971-45 45-45h29.99999971z m-90-209.99999971H423.50000029c-9 45-45 96.00000029-84.00000058 137.99999971 18 20.99999971 36 36 48.00000058 48.00000058 6.00000029 6.00000029 6.00000029 15.00000029 2.99999971 20.99999971-2.99999971 2.99999971-6.00000029 6.00000029-11.99999971 6.00000029-2.99999971 0-6.00000029 0-9-3.00000058-2.99999971-2.99999971-24.00000029-20.99999971-51.00000029-47.99999971-27 27-47.99999971 45-51.00000029 47.99999971h-9c-2.99999971 0-9-2.99999971-11.99999971-5.99999942-6.00000029-6.00000029-6.00000029-15.00000029 2.99999971-21.00000058 11.99999971-9 29.99999971-27 48.00000058-47.99999971C261.50000029 338.00000029 222.49999971 287 213.49999971 242h-14.99999942c-9 0-15.00000029-6.00000029-15.00000029-15.00000029s6.00000029-15.00000029 15.00000029-14.99999942H303.49999971V167.00000029c0-9 6.00000029-15.00000029 15.00000029-15.00000029s15.00000029 6.00000029 15.00000029 15.00000029V212.00000029h104.99999942c9 0 15.00000029 6.00000029 15.00000029 14.99999942s-6.00000029 15.00000029-15.00000029 15.00000029z" fill="" p-id="774"></path><path d="M948.5 482.00000029h-450c-9 0-15.00000029 6.00000029-15.00000029 14.99999942v450c0 9 6.00000029 15.00000029 15.00000029 15.00000029h450c9 0 15.00000029-6.00000029 15.00000029-15.00000029v-450c0-9-6.00000029-15.00000029-15.00000029-14.99999942z m-83.99999971 389.99999971h-6.00000029c-6.00000029 0-11.99999971-2.99999971-15.00000029-9L813.5 782h-150.00000029l-29.99999971 81c-2.99999971 9-11.99999971 11.99999971-18 9-9-2.99999971-11.99999971-11.99999971-9-20.99999971l119.99999971-300.00000058c6.00000029-11.99999971 24.00000029-11.99999971 27 0l120.00000058 300.00000058c2.99999971 9-2.99999971 18-9 20.99999971z" fill="" p-id="775"></path><path d="M675.50000029 752.00000029h126l-63-156.00000058zM618.49999971 152c126 0 231.00000029 92.99999971 252 216l-29.99999971-29.99999971c-6.00000029-6.00000029-15.00000029-6.00000029-20.99999971 0-6.00000029 6.00000029-6.00000029 15.00000029 0 20.99999971l59.99999942 56.99999971c2.99999971 2.99999971 6.00000029 6.00000029 12.00000058 6.00000029h2.99999971c2.99999971 0 2.99999971-2.99999971 6.00000029-2.99999971l59.99999942-60.00000029c6.00000029-6.00000029 6.00000029-15.00000029 0-20.99999971s-15.00000029-6.00000029-20.99999971 0L903.5 374.00000029C885.5 233 765.50000029 122.00000029 618.49999971 122.00000029c-9 0-15.00000029 6.00000029-14.99999942 14.99999942s6.00000029 15.00000029 14.99999942 15.00000029zM438.49999971 872c-141.00000029 0-261-92.99999971-281.99999971-216l29.99999971 29.99999971c2.99999971 6.00000029 9 6.00000029 12.00000058 6.00000029s9 0 11.99999971-2.99999971c6.00000029-6.00000029 6.00000029-15.00000029 0-21.00000058l-60.00000029-59.99999942s-2.99999971-2.99999971-5.99999942-3.00000058c-2.99999971-2.99999971-9-2.99999971-12.00000058-2.99999971-2.99999971 0-2.99999971 2.99999971-5.99999942 2.99999971l-60.00000029 60.00000029c-6.00000029 6.00000029-6.00000029 15.00000029 0 20.99999971s15.00000029 6.00000029 20.99999971 0L123.49999971 649.99999971c20.99999971 141.00000029 153 252 315 252 9 0 15.00000029-6.00000029 15.00000029-14.99999942s-6.00000029-15.00000029-15.00000029-15.00000029z" fill="" p-id="776"></path></svg>